# xmcd
#
# Track frame offsets:
#	150
#	36317
#	64055
#	87843
#	105244
#	151226
#	182304
#	205686
#	230169
#	258199
#	307931
#
# Disc length: 4486 seconds
#
# Revision: 1
# Processed by: cddbd v1.5.2PL0 Copyright (c) Steve Scherf et al.
# Submitted via: audiograbber 1.83.01
#
DISCID=7e11840b
DTITLE=Rusty Weir - Live from the Texas Theater
DYEAR=2005
DGENRE=Texas Country
TTITLE0=Intro - Hot Spot
TTITLE1=Two Dog's Howlin' at the Moon
TTITLE2=The Viagra Song
TTITLE3=The Valentine Song
TTITLE4=Cheryl Doreen
TTITLE5=The Cowboy Who Loves to Sing the Blues
TTITLE6=Burn Down the Beerjoint
TTITLE7=Thick and the Thin
TTITLE8=I Heard You Been Layin' My Old Lady
TTITLE9=Cuervo's gold
TTITLE10=Don't It Make You Wanna Dance
EXTD=
EXTT0=
EXTT1=
EXTT2=
EXTT3=
EXTT4=
EXTT5=
EXTT6=
EXTT7=
EXTT8=
EXTT9=
EXTT10=
PLAYORDER=
